%TF.GenerationSoftware,KiCad,Pcbnew,9.0.6*%
%TF.CreationDate,2025-12-19T17:46:44-08:00*%
%TF.ProjectId,aphelo30,61706865-6c6f-4333-902e-6b696361645f,v1.0.0*%
%TF.SameCoordinates,Original*%
%TF.FileFunction,Paste,Top*%
%TF.FilePolarity,Positive*%
%FSLAX46Y46*%
G04 Gerber Fmt 4.6, Leading zero omitted, Abs format (unit mm)*
G04 Created by KiCad (PCBNEW 9.0.6) date 2025-12-19 17:46:44*
%MOMM*%
%LPD*%
G01*
G04 APERTURE LIST*
G04 Aperture macros list*
%AMRotRect*
0 Rectangle, with rotation*
0 The origin of the aperture is its center*
0 $1 length*
0 $2 width*
0 $3 Rotation angle, in degrees counterclockwise*
0 Add horizontal line*
21,1,$1,$2,0,0,$3*%
%AMOutline5P*
0 Free polygon, 5 corners , with rotation*
0 The origin of the aperture is its center*
0 number of corners: always 5*
0 $1 to $10 corner X, Y*
0 $11 Rotation angle, in degrees counterclockwise*
0 create outline with 5 corners*
4,1,5,$1,$2,$3,$4,$5,$6,$7,$8,$9,$10,$1,$2,$11*%
%AMOutline6P*
0 Free polygon, 6 corners , with rotation*
0 The origin of the aperture is its center*
0 number of corners: always 6*
0 $1 to $12 corner X, Y*
0 $13 Rotation angle, in degrees counterclockwise*
0 create outline with 6 corners*
4,1,6,$1,$2,$3,$4,$5,$6,$7,$8,$9,$10,$11,$12,$1,$2,$13*%
%AMOutline7P*
0 Free polygon, 7 corners , with rotation*
0 The origin of the aperture is its center*
0 number of corners: always 7*
0 $1 to $14 corner X, Y*
0 $15 Rotation angle, in degrees counterclockwise*
0 create outline with 7 corners*
4,1,7,$1,$2,$3,$4,$5,$6,$7,$8,$9,$10,$11,$12,$13,$14,$1,$2,$15*%
%AMOutline8P*
0 Free polygon, 8 corners , with rotation*
0 The origin of the aperture is its center*
0 number of corners: always 8*
0 $1 to $16 corner X, Y*
0 $17 Rotation angle, in degrees counterclockwise*
0 create outline with 8 corners*
4,1,8,$1,$2,$3,$4,$5,$6,$7,$8,$9,$10,$11,$12,$13,$14,$15,$16,$1,$2,$17*%
%AMFreePoly0*
4,1,6,0.600000,-1.000000,0.000000,-0.400000,-0.600000,-1.000000,-0.600000,0.250000,0.600000,0.250000,0.600000,-1.000000,0.600000,-1.000000,$1*%
%AMFreePoly1*
4,1,6,0.600000,-0.200001,0.600000,-0.400000,-0.600000,-0.400000,-0.600000,-0.200000,0.000000,0.400000,0.600000,-0.200001,0.600000,-0.200001,$1*%
%AMFreePoly2*
4,1,6,0.250000,0.000000,-0.250000,-0.625000,-0.500000,-0.625000,-0.500000,0.625000,-0.250000,0.625000,0.250000,0.000000,0.250000,0.000000,$1*%
%AMFreePoly3*
4,1,6,0.500000,-0.625000,-0.650000,-0.625000,-0.150000,0.000000,-0.650000,0.625000,0.500000,0.625000,0.500000,-0.625000,0.500000,-0.625000,$1*%
G04 Aperture macros list end*
%ADD10FreePoly0,305.000000*%
%ADD11FreePoly1,305.000000*%
%ADD12Outline5P,-1.300000X1.300000X1.300000X1.300000X1.300000X-0.117000X0.117000X-1.300000X-1.300000X-1.300000X33.000000*%
%ADD13RotRect,2.000000X2.600000X33.000000*%
%ADD14R,2.000000X2.600000*%
%ADD15Outline5P,-1.300000X1.300000X1.300000X1.300000X1.300000X-0.117000X0.117000X-1.300000X-1.300000X-1.300000X0.000000*%
%ADD16RotRect,2.000000X2.600000X18.000000*%
%ADD17Outline5P,-1.300000X1.300000X1.300000X1.300000X1.300000X-0.117000X0.117000X-1.300000X-1.300000X-1.300000X18.000000*%
%ADD18FreePoly2,90.000000*%
%ADD19FreePoly3,90.000000*%
%ADD20FreePoly3,270.000000*%
%ADD21FreePoly2,270.000000*%
%ADD22R,1.500000X0.700000*%
%ADD23R,0.800000X1.000000*%
G04 APERTURE END LIST*
D10*
%TO.C,JST1*%
X109504952Y-107768186D03*
X110652105Y-109406490D03*
D11*
X108672693Y-108350939D03*
X109819846Y-109989243D03*
%TD*%
D12*
%TO.C,S1*%
X99506044Y-93226217D03*
D13*
X91269206Y-101198482D03*
%TD*%
D14*
%TO.C,S8*%
X125796796Y-55452529D03*
D15*
X137046796Y-53252529D03*
%TD*%
D14*
%TO.C,S9*%
X125796796Y-38452529D03*
D15*
X137046796Y-36252529D03*
%TD*%
D13*
%TO.C,S2*%
X82010342Y-86941082D03*
D12*
X90247180Y-78968817D03*
%TD*%
D13*
%TO.C,S3*%
X72751479Y-72683683D03*
D12*
X80988317Y-64711418D03*
%TD*%
D16*
%TO.C,S4*%
X105056120Y-81589835D03*
D17*
X115075668Y-76021069D03*
%TD*%
D16*
%TO.C,S5*%
X99802831Y-65421874D03*
D17*
X109822379Y-59853108D03*
%TD*%
D16*
%TO.C,S6*%
X94549542Y-49253914D03*
D17*
X104569090Y-43685148D03*
%TD*%
D14*
%TO.C,S7*%
X125796796Y-72452529D03*
D15*
X137046796Y-70252529D03*
%TD*%
D14*
%TO.C,S10*%
X143796796Y-77452529D03*
D15*
X155046796Y-75252529D03*
%TD*%
D14*
%TO.C,S11*%
X143796796Y-60452529D03*
D15*
X155046796Y-58252529D03*
%TD*%
D14*
%TO.C,S12*%
X143796796Y-43452529D03*
D15*
X155046796Y-41252529D03*
%TD*%
D14*
%TO.C,S13*%
X161796796Y-82452529D03*
D15*
X173046796Y-80252529D03*
%TD*%
D14*
%TO.C,S14*%
X161796796Y-65452529D03*
D15*
X173046796Y-63252529D03*
%TD*%
D14*
%TO.C,S15*%
X161796796Y-48452529D03*
D15*
X173046796Y-46252529D03*
%TD*%
D18*
%TO.C,MCU1*%
X170851796Y-110702529D03*
D19*
X170851796Y-109977529D03*
D20*
X170851796Y-100427529D03*
D21*
X170851796Y-99702529D03*
D18*
X173391796Y-110702529D03*
D19*
X173391796Y-109977529D03*
D20*
X173391796Y-100427529D03*
D21*
X173391796Y-99702529D03*
D18*
X175931796Y-110702529D03*
D19*
X175931796Y-109977529D03*
D20*
X175931796Y-100427529D03*
D21*
X175931796Y-99702529D03*
D18*
X178471796Y-110702529D03*
D19*
X178471796Y-109977529D03*
D20*
X178471796Y-100427529D03*
D21*
X178471796Y-99702529D03*
%TD*%
D22*
%TO.C,PWR1*%
X71760000Y-90452529D03*
X71760000Y-88952529D03*
X71760000Y-85952529D03*
D23*
X68900000Y-84552529D03*
X71110000Y-84552529D03*
X71110000Y-91852529D03*
X68900000Y-91852529D03*
%TD*%
M02*
