%TF.GenerationSoftware,KiCad,Pcbnew,9.0.6*%
%TF.CreationDate,2025-12-19T17:46:44-08:00*%
%TF.ProjectId,aphelo30,61706865-6c6f-4333-902e-6b696361645f,v1.0.0*%
%TF.SameCoordinates,Original*%
%TF.FileFunction,Legend,Top*%
%TF.FilePolarity,Positive*%
%FSLAX46Y46*%
G04 Gerber Fmt 4.6, Leading zero omitted, Abs format (unit mm)*
G04 Created by KiCad (PCBNEW 9.0.6) date 2025-12-19 17:46:44*
%MOMM*%
%LPD*%
G01*
G04 APERTURE LIST*
%ADD10C,0.150000*%
%ADD11C,0.120000*%
%ADD12C,0.100000*%
G04 APERTURE END LIST*
D10*
X70226615Y-99750148D02*
X69750424Y-100083481D01*
X70226615Y-100321576D02*
X69226615Y-100321576D01*
X69226615Y-100321576D02*
X69226615Y-99940624D01*
X69226615Y-99940624D02*
X69274234Y-99845386D01*
X69274234Y-99845386D02*
X69321853Y-99797767D01*
X69321853Y-99797767D02*
X69417091Y-99750148D01*
X69417091Y-99750148D02*
X69559948Y-99750148D01*
X69559948Y-99750148D02*
X69655186Y-99797767D01*
X69655186Y-99797767D02*
X69702805Y-99845386D01*
X69702805Y-99845386D02*
X69750424Y-99940624D01*
X69750424Y-99940624D02*
X69750424Y-100321576D01*
X70178996Y-99369195D02*
X70226615Y-99226338D01*
X70226615Y-99226338D02*
X70226615Y-98988243D01*
X70226615Y-98988243D02*
X70178996Y-98893005D01*
X70178996Y-98893005D02*
X70131376Y-98845386D01*
X70131376Y-98845386D02*
X70036138Y-98797767D01*
X70036138Y-98797767D02*
X69940900Y-98797767D01*
X69940900Y-98797767D02*
X69845662Y-98845386D01*
X69845662Y-98845386D02*
X69798043Y-98893005D01*
X69798043Y-98893005D02*
X69750424Y-98988243D01*
X69750424Y-98988243D02*
X69702805Y-99178719D01*
X69702805Y-99178719D02*
X69655186Y-99273957D01*
X69655186Y-99273957D02*
X69607567Y-99321576D01*
X69607567Y-99321576D02*
X69512329Y-99369195D01*
X69512329Y-99369195D02*
X69417091Y-99369195D01*
X69417091Y-99369195D02*
X69321853Y-99321576D01*
X69321853Y-99321576D02*
X69274234Y-99273957D01*
X69274234Y-99273957D02*
X69226615Y-99178719D01*
X69226615Y-99178719D02*
X69226615Y-98940624D01*
X69226615Y-98940624D02*
X69274234Y-98797767D01*
X69226615Y-98512052D02*
X69226615Y-97940624D01*
X70226615Y-98226338D02*
X69226615Y-98226338D01*
X181471615Y-113345387D02*
X180995424Y-113678720D01*
X181471615Y-113916815D02*
X180471615Y-113916815D01*
X180471615Y-113916815D02*
X180471615Y-113535863D01*
X180471615Y-113535863D02*
X180519234Y-113440625D01*
X180519234Y-113440625D02*
X180566853Y-113393006D01*
X180566853Y-113393006D02*
X180662091Y-113345387D01*
X180662091Y-113345387D02*
X180804948Y-113345387D01*
X180804948Y-113345387D02*
X180900186Y-113393006D01*
X180900186Y-113393006D02*
X180947805Y-113440625D01*
X180947805Y-113440625D02*
X180995424Y-113535863D01*
X180995424Y-113535863D02*
X180995424Y-113916815D01*
X181471615Y-112154910D02*
X180471615Y-112154910D01*
X181471615Y-111726339D02*
X180947805Y-111726339D01*
X180947805Y-111726339D02*
X180852567Y-111773958D01*
X180852567Y-111773958D02*
X180804948Y-111869196D01*
X180804948Y-111869196D02*
X180804948Y-112012053D01*
X180804948Y-112012053D02*
X180852567Y-112107291D01*
X180852567Y-112107291D02*
X180900186Y-112154910D01*
X181471615Y-110821577D02*
X180947805Y-110821577D01*
X180947805Y-110821577D02*
X180852567Y-110869196D01*
X180852567Y-110869196D02*
X180804948Y-110964434D01*
X180804948Y-110964434D02*
X180804948Y-111154910D01*
X180804948Y-111154910D02*
X180852567Y-111250148D01*
X181423996Y-110821577D02*
X181471615Y-110916815D01*
X181471615Y-110916815D02*
X181471615Y-111154910D01*
X181471615Y-111154910D02*
X181423996Y-111250148D01*
X181423996Y-111250148D02*
X181328757Y-111297767D01*
X181328757Y-111297767D02*
X181233519Y-111297767D01*
X181233519Y-111297767D02*
X181138281Y-111250148D01*
X181138281Y-111250148D02*
X181090662Y-111154910D01*
X181090662Y-111154910D02*
X181090662Y-110916815D01*
X181090662Y-110916815D02*
X181043043Y-110821577D01*
X180804948Y-110345386D02*
X181471615Y-110345386D01*
X180900186Y-110345386D02*
X180852567Y-110297767D01*
X180852567Y-110297767D02*
X180804948Y-110202529D01*
X180804948Y-110202529D02*
X180804948Y-110059672D01*
X180804948Y-110059672D02*
X180852567Y-109964434D01*
X180852567Y-109964434D02*
X180947805Y-109916815D01*
X180947805Y-109916815D02*
X181471615Y-109916815D01*
X181471615Y-109012053D02*
X180471615Y-109012053D01*
X181423996Y-109012053D02*
X181471615Y-109107291D01*
X181471615Y-109107291D02*
X181471615Y-109297767D01*
X181471615Y-109297767D02*
X181423996Y-109393005D01*
X181423996Y-109393005D02*
X181376376Y-109440624D01*
X181376376Y-109440624D02*
X181281138Y-109488243D01*
X181281138Y-109488243D02*
X180995424Y-109488243D01*
X180995424Y-109488243D02*
X180900186Y-109440624D01*
X180900186Y-109440624D02*
X180852567Y-109393005D01*
X180852567Y-109393005D02*
X180804948Y-109297767D01*
X180804948Y-109297767D02*
X180804948Y-109107291D01*
X180804948Y-109107291D02*
X180852567Y-109012053D01*
X181471615Y-107773957D02*
X180471615Y-107773957D01*
X180852567Y-107773957D02*
X180804948Y-107678719D01*
X180804948Y-107678719D02*
X180804948Y-107488243D01*
X180804948Y-107488243D02*
X180852567Y-107393005D01*
X180852567Y-107393005D02*
X180900186Y-107345386D01*
X180900186Y-107345386D02*
X180995424Y-107297767D01*
X180995424Y-107297767D02*
X181281138Y-107297767D01*
X181281138Y-107297767D02*
X181376376Y-107345386D01*
X181376376Y-107345386D02*
X181423996Y-107393005D01*
X181423996Y-107393005D02*
X181471615Y-107488243D01*
X181471615Y-107488243D02*
X181471615Y-107678719D01*
X181471615Y-107678719D02*
X181423996Y-107773957D01*
X181471615Y-106440624D02*
X180947805Y-106440624D01*
X180947805Y-106440624D02*
X180852567Y-106488243D01*
X180852567Y-106488243D02*
X180804948Y-106583481D01*
X180804948Y-106583481D02*
X180804948Y-106773957D01*
X180804948Y-106773957D02*
X180852567Y-106869195D01*
X181423996Y-106440624D02*
X181471615Y-106535862D01*
X181471615Y-106535862D02*
X181471615Y-106773957D01*
X181471615Y-106773957D02*
X181423996Y-106869195D01*
X181423996Y-106869195D02*
X181328757Y-106916814D01*
X181328757Y-106916814D02*
X181233519Y-106916814D01*
X181233519Y-106916814D02*
X181138281Y-106869195D01*
X181138281Y-106869195D02*
X181090662Y-106773957D01*
X181090662Y-106773957D02*
X181090662Y-106535862D01*
X181090662Y-106535862D02*
X181043043Y-106440624D01*
X181423996Y-105535862D02*
X181471615Y-105631100D01*
X181471615Y-105631100D02*
X181471615Y-105821576D01*
X181471615Y-105821576D02*
X181423996Y-105916814D01*
X181423996Y-105916814D02*
X181376376Y-105964433D01*
X181376376Y-105964433D02*
X181281138Y-106012052D01*
X181281138Y-106012052D02*
X180995424Y-106012052D01*
X180995424Y-106012052D02*
X180900186Y-105964433D01*
X180900186Y-105964433D02*
X180852567Y-105916814D01*
X180852567Y-105916814D02*
X180804948Y-105821576D01*
X180804948Y-105821576D02*
X180804948Y-105631100D01*
X180804948Y-105631100D02*
X180852567Y-105535862D01*
X181471615Y-105107290D02*
X180471615Y-105107290D01*
X181090662Y-105012052D02*
X181471615Y-104726338D01*
X180804948Y-104726338D02*
X181185900Y-105107290D01*
X181423996Y-103583480D02*
X181471615Y-103488242D01*
X181471615Y-103488242D02*
X181471615Y-103297766D01*
X181471615Y-103297766D02*
X181423996Y-103202528D01*
X181423996Y-103202528D02*
X181328757Y-103154909D01*
X181328757Y-103154909D02*
X181281138Y-103154909D01*
X181281138Y-103154909D02*
X181185900Y-103202528D01*
X181185900Y-103202528D02*
X181138281Y-103297766D01*
X181138281Y-103297766D02*
X181138281Y-103440623D01*
X181138281Y-103440623D02*
X181090662Y-103535861D01*
X181090662Y-103535861D02*
X180995424Y-103583480D01*
X180995424Y-103583480D02*
X180947805Y-103583480D01*
X180947805Y-103583480D02*
X180852567Y-103535861D01*
X180852567Y-103535861D02*
X180804948Y-103440623D01*
X180804948Y-103440623D02*
X180804948Y-103297766D01*
X180804948Y-103297766D02*
X180852567Y-103202528D01*
X181471615Y-102726337D02*
X180804948Y-102726337D01*
X180471615Y-102726337D02*
X180519234Y-102773956D01*
X180519234Y-102773956D02*
X180566853Y-102726337D01*
X180566853Y-102726337D02*
X180519234Y-102678718D01*
X180519234Y-102678718D02*
X180471615Y-102726337D01*
X180471615Y-102726337D02*
X180566853Y-102726337D01*
X181471615Y-101821576D02*
X180471615Y-101821576D01*
X181423996Y-101821576D02*
X181471615Y-101916814D01*
X181471615Y-101916814D02*
X181471615Y-102107290D01*
X181471615Y-102107290D02*
X181423996Y-102202528D01*
X181423996Y-102202528D02*
X181376376Y-102250147D01*
X181376376Y-102250147D02*
X181281138Y-102297766D01*
X181281138Y-102297766D02*
X180995424Y-102297766D01*
X180995424Y-102297766D02*
X180900186Y-102250147D01*
X180900186Y-102250147D02*
X180852567Y-102202528D01*
X180852567Y-102202528D02*
X180804948Y-102107290D01*
X180804948Y-102107290D02*
X180804948Y-101916814D01*
X180804948Y-101916814D02*
X180852567Y-101821576D01*
X181423996Y-100964433D02*
X181471615Y-101059671D01*
X181471615Y-101059671D02*
X181471615Y-101250147D01*
X181471615Y-101250147D02*
X181423996Y-101345385D01*
X181423996Y-101345385D02*
X181328757Y-101393004D01*
X181328757Y-101393004D02*
X180947805Y-101393004D01*
X180947805Y-101393004D02*
X180852567Y-101345385D01*
X180852567Y-101345385D02*
X180804948Y-101250147D01*
X180804948Y-101250147D02*
X180804948Y-101059671D01*
X180804948Y-101059671D02*
X180852567Y-100964433D01*
X180852567Y-100964433D02*
X180947805Y-100916814D01*
X180947805Y-100916814D02*
X181043043Y-100916814D01*
X181043043Y-100916814D02*
X181138281Y-101393004D01*
X181852567Y-99440623D02*
X181804948Y-99488242D01*
X181804948Y-99488242D02*
X181662091Y-99583480D01*
X181662091Y-99583480D02*
X181566853Y-99631099D01*
X181566853Y-99631099D02*
X181423996Y-99678718D01*
X181423996Y-99678718D02*
X181185900Y-99726337D01*
X181185900Y-99726337D02*
X180995424Y-99726337D01*
X180995424Y-99726337D02*
X180757329Y-99678718D01*
X180757329Y-99678718D02*
X180614472Y-99631099D01*
X180614472Y-99631099D02*
X180519234Y-99583480D01*
X180519234Y-99583480D02*
X180376376Y-99488242D01*
X180376376Y-99488242D02*
X180328757Y-99440623D01*
X181471615Y-99059670D02*
X180471615Y-99059670D01*
X180471615Y-99059670D02*
X181185900Y-98726337D01*
X181185900Y-98726337D02*
X180471615Y-98393004D01*
X180471615Y-98393004D02*
X181471615Y-98393004D01*
X181471615Y-97535861D02*
X180709710Y-97535861D01*
X180900186Y-97726337D02*
X180709710Y-97535861D01*
X180709710Y-97535861D02*
X180900186Y-97345385D01*
X181852567Y-96773956D02*
X181804948Y-96726337D01*
X181804948Y-96726337D02*
X181662091Y-96631099D01*
X181662091Y-96631099D02*
X181566853Y-96583480D01*
X181566853Y-96583480D02*
X181423996Y-96535861D01*
X181423996Y-96535861D02*
X181185900Y-96488242D01*
X181185900Y-96488242D02*
X180995424Y-96488242D01*
X180995424Y-96488242D02*
X180757329Y-96535861D01*
X180757329Y-96535861D02*
X180614472Y-96583480D01*
X180614472Y-96583480D02*
X180519234Y-96631099D01*
X180519234Y-96631099D02*
X180376376Y-96726337D01*
X180376376Y-96726337D02*
X180328757Y-96773956D01*
X150986615Y-110410623D02*
X149986615Y-110410623D01*
X149986615Y-110410623D02*
X149986615Y-110029671D01*
X149986615Y-110029671D02*
X150034234Y-109934433D01*
X150034234Y-109934433D02*
X150081853Y-109886814D01*
X150081853Y-109886814D02*
X150177091Y-109839195D01*
X150177091Y-109839195D02*
X150319948Y-109839195D01*
X150319948Y-109839195D02*
X150415186Y-109886814D01*
X150415186Y-109886814D02*
X150462805Y-109934433D01*
X150462805Y-109934433D02*
X150510424Y-110029671D01*
X150510424Y-110029671D02*
X150510424Y-110410623D01*
X150986615Y-109363004D02*
X150986615Y-109172528D01*
X150986615Y-109172528D02*
X150938996Y-109077290D01*
X150938996Y-109077290D02*
X150891376Y-109029671D01*
X150891376Y-109029671D02*
X150748519Y-108934433D01*
X150748519Y-108934433D02*
X150558043Y-108886814D01*
X150558043Y-108886814D02*
X150177091Y-108886814D01*
X150177091Y-108886814D02*
X150081853Y-108934433D01*
X150081853Y-108934433D02*
X150034234Y-108982052D01*
X150034234Y-108982052D02*
X149986615Y-109077290D01*
X149986615Y-109077290D02*
X149986615Y-109267766D01*
X149986615Y-109267766D02*
X150034234Y-109363004D01*
X150034234Y-109363004D02*
X150081853Y-109410623D01*
X150081853Y-109410623D02*
X150177091Y-109458242D01*
X150177091Y-109458242D02*
X150415186Y-109458242D01*
X150415186Y-109458242D02*
X150510424Y-109410623D01*
X150510424Y-109410623D02*
X150558043Y-109363004D01*
X150558043Y-109363004D02*
X150605662Y-109267766D01*
X150605662Y-109267766D02*
X150605662Y-109077290D01*
X150605662Y-109077290D02*
X150558043Y-108982052D01*
X150558043Y-108982052D02*
X150510424Y-108934433D01*
X150510424Y-108934433D02*
X150415186Y-108886814D01*
X150986615Y-101946814D02*
X149986615Y-101946814D01*
X149986615Y-101946814D02*
X149986615Y-101565862D01*
X149986615Y-101565862D02*
X150034234Y-101470624D01*
X150034234Y-101470624D02*
X150081853Y-101423005D01*
X150081853Y-101423005D02*
X150177091Y-101375386D01*
X150177091Y-101375386D02*
X150319948Y-101375386D01*
X150319948Y-101375386D02*
X150415186Y-101423005D01*
X150415186Y-101423005D02*
X150462805Y-101470624D01*
X150462805Y-101470624D02*
X150510424Y-101565862D01*
X150510424Y-101565862D02*
X150510424Y-101946814D01*
X150986615Y-100423005D02*
X150986615Y-100994433D01*
X150986615Y-100708719D02*
X149986615Y-100708719D01*
X149986615Y-100708719D02*
X150129472Y-100803957D01*
X150129472Y-100803957D02*
X150224710Y-100899195D01*
X150224710Y-100899195D02*
X150272329Y-100994433D01*
X149986615Y-99803957D02*
X149986615Y-99708719D01*
X149986615Y-99708719D02*
X150034234Y-99613481D01*
X150034234Y-99613481D02*
X150081853Y-99565862D01*
X150081853Y-99565862D02*
X150177091Y-99518243D01*
X150177091Y-99518243D02*
X150367567Y-99470624D01*
X150367567Y-99470624D02*
X150605662Y-99470624D01*
X150605662Y-99470624D02*
X150796138Y-99518243D01*
X150796138Y-99518243D02*
X150891376Y-99565862D01*
X150891376Y-99565862D02*
X150938996Y-99613481D01*
X150938996Y-99613481D02*
X150986615Y-99708719D01*
X150986615Y-99708719D02*
X150986615Y-99803957D01*
X150986615Y-99803957D02*
X150938996Y-99899195D01*
X150938996Y-99899195D02*
X150891376Y-99946814D01*
X150891376Y-99946814D02*
X150796138Y-99994433D01*
X150796138Y-99994433D02*
X150605662Y-100042052D01*
X150605662Y-100042052D02*
X150367567Y-100042052D01*
X150367567Y-100042052D02*
X150177091Y-99994433D01*
X150177091Y-99994433D02*
X150081853Y-99946814D01*
X150081853Y-99946814D02*
X150034234Y-99899195D01*
X150034234Y-99899195D02*
X149986615Y-99803957D01*
X153526615Y-110410623D02*
X152526615Y-110410623D01*
X152526615Y-110410623D02*
X152526615Y-110029671D01*
X152526615Y-110029671D02*
X152574234Y-109934433D01*
X152574234Y-109934433D02*
X152621853Y-109886814D01*
X152621853Y-109886814D02*
X152717091Y-109839195D01*
X152717091Y-109839195D02*
X152859948Y-109839195D01*
X152859948Y-109839195D02*
X152955186Y-109886814D01*
X152955186Y-109886814D02*
X153002805Y-109934433D01*
X153002805Y-109934433D02*
X153050424Y-110029671D01*
X153050424Y-110029671D02*
X153050424Y-110410623D01*
X152955186Y-109267766D02*
X152907567Y-109363004D01*
X152907567Y-109363004D02*
X152859948Y-109410623D01*
X152859948Y-109410623D02*
X152764710Y-109458242D01*
X152764710Y-109458242D02*
X152717091Y-109458242D01*
X152717091Y-109458242D02*
X152621853Y-109410623D01*
X152621853Y-109410623D02*
X152574234Y-109363004D01*
X152574234Y-109363004D02*
X152526615Y-109267766D01*
X152526615Y-109267766D02*
X152526615Y-109077290D01*
X152526615Y-109077290D02*
X152574234Y-108982052D01*
X152574234Y-108982052D02*
X152621853Y-108934433D01*
X152621853Y-108934433D02*
X152717091Y-108886814D01*
X152717091Y-108886814D02*
X152764710Y-108886814D01*
X152764710Y-108886814D02*
X152859948Y-108934433D01*
X152859948Y-108934433D02*
X152907567Y-108982052D01*
X152907567Y-108982052D02*
X152955186Y-109077290D01*
X152955186Y-109077290D02*
X152955186Y-109267766D01*
X152955186Y-109267766D02*
X153002805Y-109363004D01*
X153002805Y-109363004D02*
X153050424Y-109410623D01*
X153050424Y-109410623D02*
X153145662Y-109458242D01*
X153145662Y-109458242D02*
X153336138Y-109458242D01*
X153336138Y-109458242D02*
X153431376Y-109410623D01*
X153431376Y-109410623D02*
X153478996Y-109363004D01*
X153478996Y-109363004D02*
X153526615Y-109267766D01*
X153526615Y-109267766D02*
X153526615Y-109077290D01*
X153526615Y-109077290D02*
X153478996Y-108982052D01*
X153478996Y-108982052D02*
X153431376Y-108934433D01*
X153431376Y-108934433D02*
X153336138Y-108886814D01*
X153336138Y-108886814D02*
X153145662Y-108886814D01*
X153145662Y-108886814D02*
X153050424Y-108934433D01*
X153050424Y-108934433D02*
X153002805Y-108982052D01*
X153002805Y-108982052D02*
X152955186Y-109077290D01*
X153526615Y-101946814D02*
X152526615Y-101946814D01*
X152526615Y-101946814D02*
X152526615Y-101565862D01*
X152526615Y-101565862D02*
X152574234Y-101470624D01*
X152574234Y-101470624D02*
X152621853Y-101423005D01*
X152621853Y-101423005D02*
X152717091Y-101375386D01*
X152717091Y-101375386D02*
X152859948Y-101375386D01*
X152859948Y-101375386D02*
X152955186Y-101423005D01*
X152955186Y-101423005D02*
X153002805Y-101470624D01*
X153002805Y-101470624D02*
X153050424Y-101565862D01*
X153050424Y-101565862D02*
X153050424Y-101946814D01*
X153526615Y-100423005D02*
X153526615Y-100994433D01*
X153526615Y-100708719D02*
X152526615Y-100708719D01*
X152526615Y-100708719D02*
X152669472Y-100803957D01*
X152669472Y-100803957D02*
X152764710Y-100899195D01*
X152764710Y-100899195D02*
X152812329Y-100994433D01*
X152526615Y-99565862D02*
X152526615Y-99756338D01*
X152526615Y-99756338D02*
X152574234Y-99851576D01*
X152574234Y-99851576D02*
X152621853Y-99899195D01*
X152621853Y-99899195D02*
X152764710Y-99994433D01*
X152764710Y-99994433D02*
X152955186Y-100042052D01*
X152955186Y-100042052D02*
X153336138Y-100042052D01*
X153336138Y-100042052D02*
X153431376Y-99994433D01*
X153431376Y-99994433D02*
X153478996Y-99946814D01*
X153478996Y-99946814D02*
X153526615Y-99851576D01*
X153526615Y-99851576D02*
X153526615Y-99661100D01*
X153526615Y-99661100D02*
X153478996Y-99565862D01*
X153478996Y-99565862D02*
X153431376Y-99518243D01*
X153431376Y-99518243D02*
X153336138Y-99470624D01*
X153336138Y-99470624D02*
X153098043Y-99470624D01*
X153098043Y-99470624D02*
X153002805Y-99518243D01*
X153002805Y-99518243D02*
X152955186Y-99565862D01*
X152955186Y-99565862D02*
X152907567Y-99661100D01*
X152907567Y-99661100D02*
X152907567Y-99851576D01*
X152907567Y-99851576D02*
X152955186Y-99946814D01*
X152955186Y-99946814D02*
X153002805Y-99994433D01*
X153002805Y-99994433D02*
X153098043Y-100042052D01*
X156066615Y-110410623D02*
X155066615Y-110410623D01*
X155066615Y-110410623D02*
X155066615Y-110029671D01*
X155066615Y-110029671D02*
X155114234Y-109934433D01*
X155114234Y-109934433D02*
X155161853Y-109886814D01*
X155161853Y-109886814D02*
X155257091Y-109839195D01*
X155257091Y-109839195D02*
X155399948Y-109839195D01*
X155399948Y-109839195D02*
X155495186Y-109886814D01*
X155495186Y-109886814D02*
X155542805Y-109934433D01*
X155542805Y-109934433D02*
X155590424Y-110029671D01*
X155590424Y-110029671D02*
X155590424Y-110410623D01*
X155066615Y-109505861D02*
X155066615Y-108839195D01*
X155066615Y-108839195D02*
X156066615Y-109267766D01*
X156066615Y-101946814D02*
X155066615Y-101946814D01*
X155066615Y-101946814D02*
X155066615Y-101565862D01*
X155066615Y-101565862D02*
X155114234Y-101470624D01*
X155114234Y-101470624D02*
X155161853Y-101423005D01*
X155161853Y-101423005D02*
X155257091Y-101375386D01*
X155257091Y-101375386D02*
X155399948Y-101375386D01*
X155399948Y-101375386D02*
X155495186Y-101423005D01*
X155495186Y-101423005D02*
X155542805Y-101470624D01*
X155542805Y-101470624D02*
X155590424Y-101565862D01*
X155590424Y-101565862D02*
X155590424Y-101946814D01*
X156066615Y-100423005D02*
X156066615Y-100994433D01*
X156066615Y-100708719D02*
X155066615Y-100708719D01*
X155066615Y-100708719D02*
X155209472Y-100803957D01*
X155209472Y-100803957D02*
X155304710Y-100899195D01*
X155304710Y-100899195D02*
X155352329Y-100994433D01*
X155399948Y-99565862D02*
X156066615Y-99565862D01*
X155018996Y-99803957D02*
X155733281Y-100042052D01*
X155733281Y-100042052D02*
X155733281Y-99423005D01*
X158606615Y-110410623D02*
X157606615Y-110410623D01*
X157606615Y-110410623D02*
X157606615Y-110029671D01*
X157606615Y-110029671D02*
X157654234Y-109934433D01*
X157654234Y-109934433D02*
X157701853Y-109886814D01*
X157701853Y-109886814D02*
X157797091Y-109839195D01*
X157797091Y-109839195D02*
X157939948Y-109839195D01*
X157939948Y-109839195D02*
X158035186Y-109886814D01*
X158035186Y-109886814D02*
X158082805Y-109934433D01*
X158082805Y-109934433D02*
X158130424Y-110029671D01*
X158130424Y-110029671D02*
X158130424Y-110410623D01*
X157606615Y-108982052D02*
X157606615Y-109172528D01*
X157606615Y-109172528D02*
X157654234Y-109267766D01*
X157654234Y-109267766D02*
X157701853Y-109315385D01*
X157701853Y-109315385D02*
X157844710Y-109410623D01*
X157844710Y-109410623D02*
X158035186Y-109458242D01*
X158035186Y-109458242D02*
X158416138Y-109458242D01*
X158416138Y-109458242D02*
X158511376Y-109410623D01*
X158511376Y-109410623D02*
X158558996Y-109363004D01*
X158558996Y-109363004D02*
X158606615Y-109267766D01*
X158606615Y-109267766D02*
X158606615Y-109077290D01*
X158606615Y-109077290D02*
X158558996Y-108982052D01*
X158558996Y-108982052D02*
X158511376Y-108934433D01*
X158511376Y-108934433D02*
X158416138Y-108886814D01*
X158416138Y-108886814D02*
X158178043Y-108886814D01*
X158178043Y-108886814D02*
X158082805Y-108934433D01*
X158082805Y-108934433D02*
X158035186Y-108982052D01*
X158035186Y-108982052D02*
X157987567Y-109077290D01*
X157987567Y-109077290D02*
X157987567Y-109267766D01*
X157987567Y-109267766D02*
X158035186Y-109363004D01*
X158035186Y-109363004D02*
X158082805Y-109410623D01*
X158082805Y-109410623D02*
X158178043Y-109458242D01*
X158606615Y-101946814D02*
X157606615Y-101946814D01*
X157606615Y-101946814D02*
X157606615Y-101565862D01*
X157606615Y-101565862D02*
X157654234Y-101470624D01*
X157654234Y-101470624D02*
X157701853Y-101423005D01*
X157701853Y-101423005D02*
X157797091Y-101375386D01*
X157797091Y-101375386D02*
X157939948Y-101375386D01*
X157939948Y-101375386D02*
X158035186Y-101423005D01*
X158035186Y-101423005D02*
X158082805Y-101470624D01*
X158082805Y-101470624D02*
X158130424Y-101565862D01*
X158130424Y-101565862D02*
X158130424Y-101946814D01*
X158606615Y-100423005D02*
X158606615Y-100994433D01*
X158606615Y-100708719D02*
X157606615Y-100708719D01*
X157606615Y-100708719D02*
X157749472Y-100803957D01*
X157749472Y-100803957D02*
X157844710Y-100899195D01*
X157844710Y-100899195D02*
X157892329Y-100994433D01*
X157606615Y-99518243D02*
X157606615Y-99994433D01*
X157606615Y-99994433D02*
X158082805Y-100042052D01*
X158082805Y-100042052D02*
X158035186Y-99994433D01*
X158035186Y-99994433D02*
X157987567Y-99899195D01*
X157987567Y-99899195D02*
X157987567Y-99661100D01*
X157987567Y-99661100D02*
X158035186Y-99565862D01*
X158035186Y-99565862D02*
X158082805Y-99518243D01*
X158082805Y-99518243D02*
X158178043Y-99470624D01*
X158178043Y-99470624D02*
X158416138Y-99470624D01*
X158416138Y-99470624D02*
X158511376Y-99518243D01*
X158511376Y-99518243D02*
X158558996Y-99565862D01*
X158558996Y-99565862D02*
X158606615Y-99661100D01*
X158606615Y-99661100D02*
X158606615Y-99899195D01*
X158606615Y-99899195D02*
X158558996Y-99994433D01*
X158558996Y-99994433D02*
X158511376Y-100042052D01*
X161146615Y-110410623D02*
X160146615Y-110410623D01*
X160146615Y-110410623D02*
X160146615Y-110029671D01*
X160146615Y-110029671D02*
X160194234Y-109934433D01*
X160194234Y-109934433D02*
X160241853Y-109886814D01*
X160241853Y-109886814D02*
X160337091Y-109839195D01*
X160337091Y-109839195D02*
X160479948Y-109839195D01*
X160479948Y-109839195D02*
X160575186Y-109886814D01*
X160575186Y-109886814D02*
X160622805Y-109934433D01*
X160622805Y-109934433D02*
X160670424Y-110029671D01*
X160670424Y-110029671D02*
X160670424Y-110410623D01*
X160146615Y-108934433D02*
X160146615Y-109410623D01*
X160146615Y-109410623D02*
X160622805Y-109458242D01*
X160622805Y-109458242D02*
X160575186Y-109410623D01*
X160575186Y-109410623D02*
X160527567Y-109315385D01*
X160527567Y-109315385D02*
X160527567Y-109077290D01*
X160527567Y-109077290D02*
X160575186Y-108982052D01*
X160575186Y-108982052D02*
X160622805Y-108934433D01*
X160622805Y-108934433D02*
X160718043Y-108886814D01*
X160718043Y-108886814D02*
X160956138Y-108886814D01*
X160956138Y-108886814D02*
X161051376Y-108934433D01*
X161051376Y-108934433D02*
X161098996Y-108982052D01*
X161098996Y-108982052D02*
X161146615Y-109077290D01*
X161146615Y-109077290D02*
X161146615Y-109315385D01*
X161146615Y-109315385D02*
X161098996Y-109410623D01*
X161098996Y-109410623D02*
X161051376Y-109458242D01*
X161146615Y-101946814D02*
X160146615Y-101946814D01*
X160146615Y-101946814D02*
X160146615Y-101565862D01*
X160146615Y-101565862D02*
X160194234Y-101470624D01*
X160194234Y-101470624D02*
X160241853Y-101423005D01*
X160241853Y-101423005D02*
X160337091Y-101375386D01*
X160337091Y-101375386D02*
X160479948Y-101375386D01*
X160479948Y-101375386D02*
X160575186Y-101423005D01*
X160575186Y-101423005D02*
X160622805Y-101470624D01*
X160622805Y-101470624D02*
X160670424Y-101565862D01*
X160670424Y-101565862D02*
X160670424Y-101946814D01*
X161146615Y-100423005D02*
X161146615Y-100994433D01*
X161146615Y-100708719D02*
X160146615Y-100708719D01*
X160146615Y-100708719D02*
X160289472Y-100803957D01*
X160289472Y-100803957D02*
X160384710Y-100899195D01*
X160384710Y-100899195D02*
X160432329Y-100994433D01*
X160575186Y-99851576D02*
X160527567Y-99946814D01*
X160527567Y-99946814D02*
X160479948Y-99994433D01*
X160479948Y-99994433D02*
X160384710Y-100042052D01*
X160384710Y-100042052D02*
X160337091Y-100042052D01*
X160337091Y-100042052D02*
X160241853Y-99994433D01*
X160241853Y-99994433D02*
X160194234Y-99946814D01*
X160194234Y-99946814D02*
X160146615Y-99851576D01*
X160146615Y-99851576D02*
X160146615Y-99661100D01*
X160146615Y-99661100D02*
X160194234Y-99565862D01*
X160194234Y-99565862D02*
X160241853Y-99518243D01*
X160241853Y-99518243D02*
X160337091Y-99470624D01*
X160337091Y-99470624D02*
X160384710Y-99470624D01*
X160384710Y-99470624D02*
X160479948Y-99518243D01*
X160479948Y-99518243D02*
X160527567Y-99565862D01*
X160527567Y-99565862D02*
X160575186Y-99661100D01*
X160575186Y-99661100D02*
X160575186Y-99851576D01*
X160575186Y-99851576D02*
X160622805Y-99946814D01*
X160622805Y-99946814D02*
X160670424Y-99994433D01*
X160670424Y-99994433D02*
X160765662Y-100042052D01*
X160765662Y-100042052D02*
X160956138Y-100042052D01*
X160956138Y-100042052D02*
X161051376Y-99994433D01*
X161051376Y-99994433D02*
X161098996Y-99946814D01*
X161098996Y-99946814D02*
X161146615Y-99851576D01*
X161146615Y-99851576D02*
X161146615Y-99661100D01*
X161146615Y-99661100D02*
X161098996Y-99565862D01*
X161098996Y-99565862D02*
X161051376Y-99518243D01*
X161051376Y-99518243D02*
X160956138Y-99470624D01*
X160956138Y-99470624D02*
X160765662Y-99470624D01*
X160765662Y-99470624D02*
X160670424Y-99518243D01*
X160670424Y-99518243D02*
X160622805Y-99565862D01*
X160622805Y-99565862D02*
X160575186Y-99661100D01*
X163686615Y-110410623D02*
X162686615Y-110410623D01*
X162686615Y-110410623D02*
X162686615Y-110029671D01*
X162686615Y-110029671D02*
X162734234Y-109934433D01*
X162734234Y-109934433D02*
X162781853Y-109886814D01*
X162781853Y-109886814D02*
X162877091Y-109839195D01*
X162877091Y-109839195D02*
X163019948Y-109839195D01*
X163019948Y-109839195D02*
X163115186Y-109886814D01*
X163115186Y-109886814D02*
X163162805Y-109934433D01*
X163162805Y-109934433D02*
X163210424Y-110029671D01*
X163210424Y-110029671D02*
X163210424Y-110410623D01*
X163019948Y-108982052D02*
X163686615Y-108982052D01*
X162638996Y-109220147D02*
X163353281Y-109458242D01*
X163353281Y-109458242D02*
X163353281Y-108839195D01*
X163686615Y-101946814D02*
X162686615Y-101946814D01*
X162686615Y-101946814D02*
X162686615Y-101565862D01*
X162686615Y-101565862D02*
X162734234Y-101470624D01*
X162734234Y-101470624D02*
X162781853Y-101423005D01*
X162781853Y-101423005D02*
X162877091Y-101375386D01*
X162877091Y-101375386D02*
X163019948Y-101375386D01*
X163019948Y-101375386D02*
X163115186Y-101423005D01*
X163115186Y-101423005D02*
X163162805Y-101470624D01*
X163162805Y-101470624D02*
X163210424Y-101565862D01*
X163210424Y-101565862D02*
X163210424Y-101946814D01*
X163686615Y-100423005D02*
X163686615Y-100994433D01*
X163686615Y-100708719D02*
X162686615Y-100708719D01*
X162686615Y-100708719D02*
X162829472Y-100803957D01*
X162829472Y-100803957D02*
X162924710Y-100899195D01*
X162924710Y-100899195D02*
X162972329Y-100994433D01*
X163686615Y-99946814D02*
X163686615Y-99756338D01*
X163686615Y-99756338D02*
X163638996Y-99661100D01*
X163638996Y-99661100D02*
X163591376Y-99613481D01*
X163591376Y-99613481D02*
X163448519Y-99518243D01*
X163448519Y-99518243D02*
X163258043Y-99470624D01*
X163258043Y-99470624D02*
X162877091Y-99470624D01*
X162877091Y-99470624D02*
X162781853Y-99518243D01*
X162781853Y-99518243D02*
X162734234Y-99565862D01*
X162734234Y-99565862D02*
X162686615Y-99661100D01*
X162686615Y-99661100D02*
X162686615Y-99851576D01*
X162686615Y-99851576D02*
X162734234Y-99946814D01*
X162734234Y-99946814D02*
X162781853Y-99994433D01*
X162781853Y-99994433D02*
X162877091Y-100042052D01*
X162877091Y-100042052D02*
X163115186Y-100042052D01*
X163115186Y-100042052D02*
X163210424Y-99994433D01*
X163210424Y-99994433D02*
X163258043Y-99946814D01*
X163258043Y-99946814D02*
X163305662Y-99851576D01*
X163305662Y-99851576D02*
X163305662Y-99661100D01*
X163305662Y-99661100D02*
X163258043Y-99565862D01*
X163258043Y-99565862D02*
X163210424Y-99518243D01*
X163210424Y-99518243D02*
X163115186Y-99470624D01*
X166226615Y-110410623D02*
X165226615Y-110410623D01*
X165226615Y-110410623D02*
X165226615Y-110029671D01*
X165226615Y-110029671D02*
X165274234Y-109934433D01*
X165274234Y-109934433D02*
X165321853Y-109886814D01*
X165321853Y-109886814D02*
X165417091Y-109839195D01*
X165417091Y-109839195D02*
X165559948Y-109839195D01*
X165559948Y-109839195D02*
X165655186Y-109886814D01*
X165655186Y-109886814D02*
X165702805Y-109934433D01*
X165702805Y-109934433D02*
X165750424Y-110029671D01*
X165750424Y-110029671D02*
X165750424Y-110410623D01*
X165226615Y-109505861D02*
X165226615Y-108886814D01*
X165226615Y-108886814D02*
X165607567Y-109220147D01*
X165607567Y-109220147D02*
X165607567Y-109077290D01*
X165607567Y-109077290D02*
X165655186Y-108982052D01*
X165655186Y-108982052D02*
X165702805Y-108934433D01*
X165702805Y-108934433D02*
X165798043Y-108886814D01*
X165798043Y-108886814D02*
X166036138Y-108886814D01*
X166036138Y-108886814D02*
X166131376Y-108934433D01*
X166131376Y-108934433D02*
X166178996Y-108982052D01*
X166178996Y-108982052D02*
X166226615Y-109077290D01*
X166226615Y-109077290D02*
X166226615Y-109363004D01*
X166226615Y-109363004D02*
X166178996Y-109458242D01*
X166178996Y-109458242D02*
X166131376Y-109505861D01*
X166226615Y-101946814D02*
X165226615Y-101946814D01*
X165226615Y-101946814D02*
X165226615Y-101565862D01*
X165226615Y-101565862D02*
X165274234Y-101470624D01*
X165274234Y-101470624D02*
X165321853Y-101423005D01*
X165321853Y-101423005D02*
X165417091Y-101375386D01*
X165417091Y-101375386D02*
X165559948Y-101375386D01*
X165559948Y-101375386D02*
X165655186Y-101423005D01*
X165655186Y-101423005D02*
X165702805Y-101470624D01*
X165702805Y-101470624D02*
X165750424Y-101565862D01*
X165750424Y-101565862D02*
X165750424Y-101946814D01*
X165321853Y-100994433D02*
X165274234Y-100946814D01*
X165274234Y-100946814D02*
X165226615Y-100851576D01*
X165226615Y-100851576D02*
X165226615Y-100613481D01*
X165226615Y-100613481D02*
X165274234Y-100518243D01*
X165274234Y-100518243D02*
X165321853Y-100470624D01*
X165321853Y-100470624D02*
X165417091Y-100423005D01*
X165417091Y-100423005D02*
X165512329Y-100423005D01*
X165512329Y-100423005D02*
X165655186Y-100470624D01*
X165655186Y-100470624D02*
X166226615Y-101042052D01*
X166226615Y-101042052D02*
X166226615Y-100423005D01*
X165226615Y-99803957D02*
X165226615Y-99708719D01*
X165226615Y-99708719D02*
X165274234Y-99613481D01*
X165274234Y-99613481D02*
X165321853Y-99565862D01*
X165321853Y-99565862D02*
X165417091Y-99518243D01*
X165417091Y-99518243D02*
X165607567Y-99470624D01*
X165607567Y-99470624D02*
X165845662Y-99470624D01*
X165845662Y-99470624D02*
X166036138Y-99518243D01*
X166036138Y-99518243D02*
X166131376Y-99565862D01*
X166131376Y-99565862D02*
X166178996Y-99613481D01*
X166178996Y-99613481D02*
X166226615Y-99708719D01*
X166226615Y-99708719D02*
X166226615Y-99803957D01*
X166226615Y-99803957D02*
X166178996Y-99899195D01*
X166178996Y-99899195D02*
X166131376Y-99946814D01*
X166131376Y-99946814D02*
X166036138Y-99994433D01*
X166036138Y-99994433D02*
X165845662Y-100042052D01*
X165845662Y-100042052D02*
X165607567Y-100042052D01*
X165607567Y-100042052D02*
X165417091Y-99994433D01*
X165417091Y-99994433D02*
X165321853Y-99946814D01*
X165321853Y-99946814D02*
X165274234Y-99899195D01*
X165274234Y-99899195D02*
X165226615Y-99803957D01*
X168766615Y-110410623D02*
X167766615Y-110410623D01*
X167766615Y-110410623D02*
X167766615Y-110029671D01*
X167766615Y-110029671D02*
X167814234Y-109934433D01*
X167814234Y-109934433D02*
X167861853Y-109886814D01*
X167861853Y-109886814D02*
X167957091Y-109839195D01*
X167957091Y-109839195D02*
X168099948Y-109839195D01*
X168099948Y-109839195D02*
X168195186Y-109886814D01*
X168195186Y-109886814D02*
X168242805Y-109934433D01*
X168242805Y-109934433D02*
X168290424Y-110029671D01*
X168290424Y-110029671D02*
X168290424Y-110410623D01*
X167861853Y-109458242D02*
X167814234Y-109410623D01*
X167814234Y-109410623D02*
X167766615Y-109315385D01*
X167766615Y-109315385D02*
X167766615Y-109077290D01*
X167766615Y-109077290D02*
X167814234Y-108982052D01*
X167814234Y-108982052D02*
X167861853Y-108934433D01*
X167861853Y-108934433D02*
X167957091Y-108886814D01*
X167957091Y-108886814D02*
X168052329Y-108886814D01*
X168052329Y-108886814D02*
X168195186Y-108934433D01*
X168195186Y-108934433D02*
X168766615Y-109505861D01*
X168766615Y-109505861D02*
X168766615Y-108886814D01*
X168766615Y-101946814D02*
X167766615Y-101946814D01*
X167766615Y-101946814D02*
X167766615Y-101565862D01*
X167766615Y-101565862D02*
X167814234Y-101470624D01*
X167814234Y-101470624D02*
X167861853Y-101423005D01*
X167861853Y-101423005D02*
X167957091Y-101375386D01*
X167957091Y-101375386D02*
X168099948Y-101375386D01*
X168099948Y-101375386D02*
X168195186Y-101423005D01*
X168195186Y-101423005D02*
X168242805Y-101470624D01*
X168242805Y-101470624D02*
X168290424Y-101565862D01*
X168290424Y-101565862D02*
X168290424Y-101946814D01*
X167861853Y-100994433D02*
X167814234Y-100946814D01*
X167814234Y-100946814D02*
X167766615Y-100851576D01*
X167766615Y-100851576D02*
X167766615Y-100613481D01*
X167766615Y-100613481D02*
X167814234Y-100518243D01*
X167814234Y-100518243D02*
X167861853Y-100470624D01*
X167861853Y-100470624D02*
X167957091Y-100423005D01*
X167957091Y-100423005D02*
X168052329Y-100423005D01*
X168052329Y-100423005D02*
X168195186Y-100470624D01*
X168195186Y-100470624D02*
X168766615Y-101042052D01*
X168766615Y-101042052D02*
X168766615Y-100423005D01*
X168766615Y-99470624D02*
X168766615Y-100042052D01*
X168766615Y-99756338D02*
X167766615Y-99756338D01*
X167766615Y-99756338D02*
X167909472Y-99851576D01*
X167909472Y-99851576D02*
X168004710Y-99946814D01*
X168004710Y-99946814D02*
X168052329Y-100042052D01*
X170354234Y-107414433D02*
X170306615Y-107509671D01*
X170306615Y-107509671D02*
X170306615Y-107652528D01*
X170306615Y-107652528D02*
X170354234Y-107795385D01*
X170354234Y-107795385D02*
X170449472Y-107890623D01*
X170449472Y-107890623D02*
X170544710Y-107938242D01*
X170544710Y-107938242D02*
X170735186Y-107985861D01*
X170735186Y-107985861D02*
X170878043Y-107985861D01*
X170878043Y-107985861D02*
X171068519Y-107938242D01*
X171068519Y-107938242D02*
X171163757Y-107890623D01*
X171163757Y-107890623D02*
X171258996Y-107795385D01*
X171258996Y-107795385D02*
X171306615Y-107652528D01*
X171306615Y-107652528D02*
X171306615Y-107557290D01*
X171306615Y-107557290D02*
X171258996Y-107414433D01*
X171258996Y-107414433D02*
X171211376Y-107366814D01*
X171211376Y-107366814D02*
X170878043Y-107366814D01*
X170878043Y-107366814D02*
X170878043Y-107557290D01*
X171306615Y-106938242D02*
X170306615Y-106938242D01*
X170306615Y-106938242D02*
X171306615Y-106366814D01*
X171306615Y-106366814D02*
X170306615Y-106366814D01*
X171306615Y-105890623D02*
X170306615Y-105890623D01*
X170306615Y-105890623D02*
X170306615Y-105652528D01*
X170306615Y-105652528D02*
X170354234Y-105509671D01*
X170354234Y-105509671D02*
X170449472Y-105414433D01*
X170449472Y-105414433D02*
X170544710Y-105366814D01*
X170544710Y-105366814D02*
X170735186Y-105319195D01*
X170735186Y-105319195D02*
X170878043Y-105319195D01*
X170878043Y-105319195D02*
X171068519Y-105366814D01*
X171068519Y-105366814D02*
X171163757Y-105414433D01*
X171163757Y-105414433D02*
X171258996Y-105509671D01*
X171258996Y-105509671D02*
X171306615Y-105652528D01*
X171306615Y-105652528D02*
X171306615Y-105890623D01*
X170306615Y-105085861D02*
X171306615Y-104752528D01*
X171306615Y-104752528D02*
X170306615Y-104419195D01*
X171211376Y-103514433D02*
X171258996Y-103562052D01*
X171258996Y-103562052D02*
X171306615Y-103704909D01*
X171306615Y-103704909D02*
X171306615Y-103800147D01*
X171306615Y-103800147D02*
X171258996Y-103943004D01*
X171258996Y-103943004D02*
X171163757Y-104038242D01*
X171163757Y-104038242D02*
X171068519Y-104085861D01*
X171068519Y-104085861D02*
X170878043Y-104133480D01*
X170878043Y-104133480D02*
X170735186Y-104133480D01*
X170735186Y-104133480D02*
X170544710Y-104085861D01*
X170544710Y-104085861D02*
X170449472Y-104038242D01*
X170449472Y-104038242D02*
X170354234Y-103943004D01*
X170354234Y-103943004D02*
X170306615Y-103800147D01*
X170306615Y-103800147D02*
X170306615Y-103704909D01*
X170306615Y-103704909D02*
X170354234Y-103562052D01*
X170354234Y-103562052D02*
X170401853Y-103514433D01*
X171211376Y-102514433D02*
X171258996Y-102562052D01*
X171258996Y-102562052D02*
X171306615Y-102704909D01*
X171306615Y-102704909D02*
X171306615Y-102800147D01*
X171306615Y-102800147D02*
X171258996Y-102943004D01*
X171258996Y-102943004D02*
X171163757Y-103038242D01*
X171163757Y-103038242D02*
X171068519Y-103085861D01*
X171068519Y-103085861D02*
X170878043Y-103133480D01*
X170878043Y-103133480D02*
X170735186Y-103133480D01*
X170735186Y-103133480D02*
X170544710Y-103085861D01*
X170544710Y-103085861D02*
X170449472Y-103038242D01*
X170449472Y-103038242D02*
X170354234Y-102943004D01*
X170354234Y-102943004D02*
X170306615Y-102800147D01*
X170306615Y-102800147D02*
X170306615Y-102704909D01*
X170306615Y-102704909D02*
X170354234Y-102562052D01*
X170354234Y-102562052D02*
X170401853Y-102514433D01*
X172894234Y-107414433D02*
X172846615Y-107509671D01*
X172846615Y-107509671D02*
X172846615Y-107652528D01*
X172846615Y-107652528D02*
X172894234Y-107795385D01*
X172894234Y-107795385D02*
X172989472Y-107890623D01*
X172989472Y-107890623D02*
X173084710Y-107938242D01*
X173084710Y-107938242D02*
X173275186Y-107985861D01*
X173275186Y-107985861D02*
X173418043Y-107985861D01*
X173418043Y-107985861D02*
X173608519Y-107938242D01*
X173608519Y-107938242D02*
X173703757Y-107890623D01*
X173703757Y-107890623D02*
X173798996Y-107795385D01*
X173798996Y-107795385D02*
X173846615Y-107652528D01*
X173846615Y-107652528D02*
X173846615Y-107557290D01*
X173846615Y-107557290D02*
X173798996Y-107414433D01*
X173798996Y-107414433D02*
X173751376Y-107366814D01*
X173751376Y-107366814D02*
X173418043Y-107366814D01*
X173418043Y-107366814D02*
X173418043Y-107557290D01*
X173846615Y-106938242D02*
X172846615Y-106938242D01*
X172846615Y-106938242D02*
X173846615Y-106366814D01*
X173846615Y-106366814D02*
X172846615Y-106366814D01*
X173846615Y-105890623D02*
X172846615Y-105890623D01*
X172846615Y-105890623D02*
X172846615Y-105652528D01*
X172846615Y-105652528D02*
X172894234Y-105509671D01*
X172894234Y-105509671D02*
X172989472Y-105414433D01*
X172989472Y-105414433D02*
X173084710Y-105366814D01*
X173084710Y-105366814D02*
X173275186Y-105319195D01*
X173275186Y-105319195D02*
X173418043Y-105319195D01*
X173418043Y-105319195D02*
X173608519Y-105366814D01*
X173608519Y-105366814D02*
X173703757Y-105414433D01*
X173703757Y-105414433D02*
X173798996Y-105509671D01*
X173798996Y-105509671D02*
X173846615Y-105652528D01*
X173846615Y-105652528D02*
X173846615Y-105890623D01*
X173846615Y-104300148D02*
X173370424Y-104633481D01*
X173846615Y-104871576D02*
X172846615Y-104871576D01*
X172846615Y-104871576D02*
X172846615Y-104490624D01*
X172846615Y-104490624D02*
X172894234Y-104395386D01*
X172894234Y-104395386D02*
X172941853Y-104347767D01*
X172941853Y-104347767D02*
X173037091Y-104300148D01*
X173037091Y-104300148D02*
X173179948Y-104300148D01*
X173179948Y-104300148D02*
X173275186Y-104347767D01*
X173275186Y-104347767D02*
X173322805Y-104395386D01*
X173322805Y-104395386D02*
X173370424Y-104490624D01*
X173370424Y-104490624D02*
X173370424Y-104871576D01*
X173798996Y-103919195D02*
X173846615Y-103776338D01*
X173846615Y-103776338D02*
X173846615Y-103538243D01*
X173846615Y-103538243D02*
X173798996Y-103443005D01*
X173798996Y-103443005D02*
X173751376Y-103395386D01*
X173751376Y-103395386D02*
X173656138Y-103347767D01*
X173656138Y-103347767D02*
X173560900Y-103347767D01*
X173560900Y-103347767D02*
X173465662Y-103395386D01*
X173465662Y-103395386D02*
X173418043Y-103443005D01*
X173418043Y-103443005D02*
X173370424Y-103538243D01*
X173370424Y-103538243D02*
X173322805Y-103728719D01*
X173322805Y-103728719D02*
X173275186Y-103823957D01*
X173275186Y-103823957D02*
X173227567Y-103871576D01*
X173227567Y-103871576D02*
X173132329Y-103919195D01*
X173132329Y-103919195D02*
X173037091Y-103919195D01*
X173037091Y-103919195D02*
X172941853Y-103871576D01*
X172941853Y-103871576D02*
X172894234Y-103823957D01*
X172894234Y-103823957D02*
X172846615Y-103728719D01*
X172846615Y-103728719D02*
X172846615Y-103490624D01*
X172846615Y-103490624D02*
X172894234Y-103347767D01*
X172846615Y-103062052D02*
X172846615Y-102490624D01*
X173846615Y-102776338D02*
X172846615Y-102776338D01*
X176386615Y-107980623D02*
X175386615Y-107980623D01*
X175386615Y-107980623D02*
X175386615Y-107599671D01*
X175386615Y-107599671D02*
X175434234Y-107504433D01*
X175434234Y-107504433D02*
X175481853Y-107456814D01*
X175481853Y-107456814D02*
X175577091Y-107409195D01*
X175577091Y-107409195D02*
X175719948Y-107409195D01*
X175719948Y-107409195D02*
X175815186Y-107456814D01*
X175815186Y-107456814D02*
X175862805Y-107504433D01*
X175862805Y-107504433D02*
X175910424Y-107599671D01*
X175910424Y-107599671D02*
X175910424Y-107980623D01*
X175386615Y-106790147D02*
X175386615Y-106694909D01*
X175386615Y-106694909D02*
X175434234Y-106599671D01*
X175434234Y-106599671D02*
X175481853Y-106552052D01*
X175481853Y-106552052D02*
X175577091Y-106504433D01*
X175577091Y-106504433D02*
X175767567Y-106456814D01*
X175767567Y-106456814D02*
X176005662Y-106456814D01*
X176005662Y-106456814D02*
X176196138Y-106504433D01*
X176196138Y-106504433D02*
X176291376Y-106552052D01*
X176291376Y-106552052D02*
X176338996Y-106599671D01*
X176338996Y-106599671D02*
X176386615Y-106694909D01*
X176386615Y-106694909D02*
X176386615Y-106790147D01*
X176386615Y-106790147D02*
X176338996Y-106885385D01*
X176338996Y-106885385D02*
X176291376Y-106933004D01*
X176291376Y-106933004D02*
X176196138Y-106980623D01*
X176196138Y-106980623D02*
X176005662Y-107028242D01*
X176005662Y-107028242D02*
X175767567Y-107028242D01*
X175767567Y-107028242D02*
X175577091Y-106980623D01*
X175577091Y-106980623D02*
X175481853Y-106933004D01*
X175481853Y-106933004D02*
X175434234Y-106885385D01*
X175434234Y-106885385D02*
X175386615Y-106790147D01*
X175434234Y-104514433D02*
X175386615Y-104609671D01*
X175386615Y-104609671D02*
X175386615Y-104752528D01*
X175386615Y-104752528D02*
X175434234Y-104895385D01*
X175434234Y-104895385D02*
X175529472Y-104990623D01*
X175529472Y-104990623D02*
X175624710Y-105038242D01*
X175624710Y-105038242D02*
X175815186Y-105085861D01*
X175815186Y-105085861D02*
X175958043Y-105085861D01*
X175958043Y-105085861D02*
X176148519Y-105038242D01*
X176148519Y-105038242D02*
X176243757Y-104990623D01*
X176243757Y-104990623D02*
X176338996Y-104895385D01*
X176338996Y-104895385D02*
X176386615Y-104752528D01*
X176386615Y-104752528D02*
X176386615Y-104657290D01*
X176386615Y-104657290D02*
X176338996Y-104514433D01*
X176338996Y-104514433D02*
X176291376Y-104466814D01*
X176291376Y-104466814D02*
X175958043Y-104466814D01*
X175958043Y-104466814D02*
X175958043Y-104657290D01*
X176386615Y-104038242D02*
X175386615Y-104038242D01*
X175386615Y-104038242D02*
X176386615Y-103466814D01*
X176386615Y-103466814D02*
X175386615Y-103466814D01*
X176386615Y-102990623D02*
X175386615Y-102990623D01*
X175386615Y-102990623D02*
X175386615Y-102752528D01*
X175386615Y-102752528D02*
X175434234Y-102609671D01*
X175434234Y-102609671D02*
X175529472Y-102514433D01*
X175529472Y-102514433D02*
X175624710Y-102466814D01*
X175624710Y-102466814D02*
X175815186Y-102419195D01*
X175815186Y-102419195D02*
X175958043Y-102419195D01*
X175958043Y-102419195D02*
X176148519Y-102466814D01*
X176148519Y-102466814D02*
X176243757Y-102514433D01*
X176243757Y-102514433D02*
X176338996Y-102609671D01*
X176338996Y-102609671D02*
X176386615Y-102752528D01*
X176386615Y-102752528D02*
X176386615Y-102990623D01*
X178926615Y-107980623D02*
X177926615Y-107980623D01*
X177926615Y-107980623D02*
X177926615Y-107599671D01*
X177926615Y-107599671D02*
X177974234Y-107504433D01*
X177974234Y-107504433D02*
X178021853Y-107456814D01*
X178021853Y-107456814D02*
X178117091Y-107409195D01*
X178117091Y-107409195D02*
X178259948Y-107409195D01*
X178259948Y-107409195D02*
X178355186Y-107456814D01*
X178355186Y-107456814D02*
X178402805Y-107504433D01*
X178402805Y-107504433D02*
X178450424Y-107599671D01*
X178450424Y-107599671D02*
X178450424Y-107980623D01*
X178926615Y-106456814D02*
X178926615Y-107028242D01*
X178926615Y-106742528D02*
X177926615Y-106742528D01*
X177926615Y-106742528D02*
X178069472Y-106837766D01*
X178069472Y-106837766D02*
X178164710Y-106933004D01*
X178164710Y-106933004D02*
X178212329Y-107028242D01*
X178926615Y-104443005D02*
X178450424Y-104776338D01*
X178926615Y-105014433D02*
X177926615Y-105014433D01*
X177926615Y-105014433D02*
X177926615Y-104633481D01*
X177926615Y-104633481D02*
X177974234Y-104538243D01*
X177974234Y-104538243D02*
X178021853Y-104490624D01*
X178021853Y-104490624D02*
X178117091Y-104443005D01*
X178117091Y-104443005D02*
X178259948Y-104443005D01*
X178259948Y-104443005D02*
X178355186Y-104490624D01*
X178355186Y-104490624D02*
X178402805Y-104538243D01*
X178402805Y-104538243D02*
X178450424Y-104633481D01*
X178450424Y-104633481D02*
X178450424Y-105014433D01*
X178640900Y-104062052D02*
X178640900Y-103585862D01*
X178926615Y-104157290D02*
X177926615Y-103823957D01*
X177926615Y-103823957D02*
X178926615Y-103490624D01*
X177926615Y-103252528D02*
X178926615Y-103014433D01*
X178926615Y-103014433D02*
X178212329Y-102823957D01*
X178212329Y-102823957D02*
X178926615Y-102633481D01*
X178926615Y-102633481D02*
X177926615Y-102395386D01*
X69072619Y-92657348D02*
X69263095Y-92657348D01*
X69263095Y-92657348D02*
X69358333Y-92704967D01*
X69358333Y-92704967D02*
X69453571Y-92800205D01*
X69453571Y-92800205D02*
X69501190Y-92990681D01*
X69501190Y-92990681D02*
X69501190Y-93324014D01*
X69501190Y-93324014D02*
X69453571Y-93514490D01*
X69453571Y-93514490D02*
X69358333Y-93609729D01*
X69358333Y-93609729D02*
X69263095Y-93657348D01*
X69263095Y-93657348D02*
X69072619Y-93657348D01*
X69072619Y-93657348D02*
X68977381Y-93609729D01*
X68977381Y-93609729D02*
X68882143Y-93514490D01*
X68882143Y-93514490D02*
X68834524Y-93324014D01*
X68834524Y-93324014D02*
X68834524Y-92990681D01*
X68834524Y-92990681D02*
X68882143Y-92800205D01*
X68882143Y-92800205D02*
X68977381Y-92704967D01*
X68977381Y-92704967D02*
X69072619Y-92657348D01*
X70263095Y-93133538D02*
X69929762Y-93133538D01*
X69929762Y-93657348D02*
X69929762Y-92657348D01*
X69929762Y-92657348D02*
X70405952Y-92657348D01*
X71120238Y-93133538D02*
X70786905Y-93133538D01*
X70786905Y-93657348D02*
X70786905Y-92657348D01*
X70786905Y-92657348D02*
X71263095Y-92657348D01*
X69405952Y-82657348D02*
X69596428Y-82657348D01*
X69596428Y-82657348D02*
X69691666Y-82704967D01*
X69691666Y-82704967D02*
X69786904Y-82800205D01*
X69786904Y-82800205D02*
X69834523Y-82990681D01*
X69834523Y-82990681D02*
X69834523Y-83324014D01*
X69834523Y-83324014D02*
X69786904Y-83514490D01*
X69786904Y-83514490D02*
X69691666Y-83609729D01*
X69691666Y-83609729D02*
X69596428Y-83657348D01*
X69596428Y-83657348D02*
X69405952Y-83657348D01*
X69405952Y-83657348D02*
X69310714Y-83609729D01*
X69310714Y-83609729D02*
X69215476Y-83514490D01*
X69215476Y-83514490D02*
X69167857Y-83324014D01*
X69167857Y-83324014D02*
X69167857Y-82990681D01*
X69167857Y-82990681D02*
X69215476Y-82800205D01*
X69215476Y-82800205D02*
X69310714Y-82704967D01*
X69310714Y-82704967D02*
X69405952Y-82657348D01*
X70263095Y-83657348D02*
X70263095Y-82657348D01*
X70263095Y-82657348D02*
X70834523Y-83657348D01*
X70834523Y-83657348D02*
X70834523Y-82657348D01*
D11*
%TO.C,JST1*%
X111226459Y-104047978D02*
X110407307Y-104621554D01*
X111754149Y-104801597D02*
X111226459Y-104047978D01*
X114736747Y-109061188D02*
X113917595Y-109634765D01*
X114209057Y-108307568D02*
X114736747Y-109061188D01*
X104820690Y-108533345D02*
X105639842Y-107959769D01*
X105348380Y-109286965D02*
X104820690Y-108533345D01*
X108330978Y-113546556D02*
X109150130Y-112972979D01*
X107757401Y-112727404D02*
X108330978Y-113546556D01*
D12*
X112850369Y-105425700D02*
X113669521Y-104852123D01*
X112973156Y-104729335D02*
X113546733Y-105548487D01*
X114693886Y-107186791D02*
X114120309Y-106367639D01*
D10*
%TO.C,RST1*%
X68021796Y-96202529D02*
X68271796Y-96202529D01*
X68021796Y-102202529D02*
X68021796Y-96202529D01*
X68021796Y-102202529D02*
X68271796Y-102202529D01*
X71521796Y-102202529D02*
X71271796Y-102202529D01*
X71521796Y-96202529D02*
X71271796Y-96202529D01*
X71521796Y-102202529D02*
X71521796Y-96202529D01*
%TO.C,S1*%
X91079327Y-99115918D02*
X90752544Y-98612716D01*
X90752544Y-98612716D02*
X94509788Y-96172733D01*
X94630006Y-95403092D02*
X94128938Y-94631515D01*
X94275954Y-93939860D02*
X94128938Y-94631515D01*
X96791966Y-92305943D02*
X94275954Y-93939860D01*
X97483621Y-92452959D02*
X96791966Y-92305943D01*
X94630006Y-95403092D02*
G75*
G02*
X94509787Y-96172732I-444928J-324711D01*
G01*
X93312347Y-102554467D02*
X93040028Y-102135132D01*
X97086365Y-100103592D02*
X93312347Y-102554467D01*
X96705118Y-99516522D02*
X97086365Y-100103592D01*
X99242841Y-96079960D02*
X97313899Y-97332630D01*
X99389857Y-95388306D02*
X99242841Y-96079960D01*
X96694225Y-99499749D02*
G75*
G02*
X97313899Y-97332630I1393395J773723D01*
G01*
%TO.C,S8*%
X131271796Y-56982529D02*
G75*
G02*
X132971796Y-55502529I1589999J-109999D01*
G01*
X135771796Y-55002529D02*
X135271796Y-55502529D01*
X135271796Y-55502529D02*
X132971796Y-55502529D01*
X131271796Y-57002529D02*
X131271796Y-57702529D01*
X131271796Y-57702529D02*
X126771796Y-57702529D01*
X126771796Y-57702529D02*
X126771796Y-57202529D01*
X131771796Y-52422529D02*
G75*
G02*
X131251796Y-53002529I-549999J-30001D01*
G01*
X135771796Y-51502529D02*
X135271796Y-51002529D01*
X135271796Y-51002529D02*
X132271796Y-51002529D01*
X132271796Y-51002529D02*
X131771796Y-51502529D01*
X131771796Y-52422529D02*
X131771796Y-51502529D01*
X126771796Y-53002529D02*
X131251796Y-53002529D01*
X126771796Y-53602529D02*
X126771796Y-53002529D01*
%TO.C,S9*%
X131271796Y-39982529D02*
G75*
G02*
X132971796Y-38502529I1589999J-109999D01*
G01*
X135771796Y-38002529D02*
X135271796Y-38502529D01*
X135271796Y-38502529D02*
X132971796Y-38502529D01*
X131271796Y-40002529D02*
X131271796Y-40702529D01*
X131271796Y-40702529D02*
X126771796Y-40702529D01*
X126771796Y-40702529D02*
X126771796Y-40202529D01*
X131771796Y-35422529D02*
G75*
G02*
X131251796Y-36002529I-549999J-30001D01*
G01*
X135771796Y-34502529D02*
X135271796Y-34002529D01*
X135271796Y-34002529D02*
X132271796Y-34002529D01*
X132271796Y-34002529D02*
X131771796Y-34502529D01*
X131771796Y-35422529D02*
X131771796Y-34502529D01*
X126771796Y-36002529D02*
X131251796Y-36002529D01*
X126771796Y-36602529D02*
X126771796Y-36002529D01*
%TO.C,S2*%
X87435361Y-85242349D02*
G75*
G02*
X88055035Y-83075230I1393395J773723D01*
G01*
X90130993Y-81130906D02*
X89983977Y-81822560D01*
X89983977Y-81822560D02*
X88055035Y-83075230D01*
X87446254Y-85259122D02*
X87827501Y-85846192D01*
X87827501Y-85846192D02*
X84053483Y-88297067D01*
X84053483Y-88297067D02*
X83781164Y-87877732D01*
X85371142Y-81145692D02*
G75*
G02*
X85250923Y-81915332I-444928J-324711D01*
G01*
X88224757Y-78195559D02*
X87533102Y-78048543D01*
X87533102Y-78048543D02*
X85017090Y-79682460D01*
X85017090Y-79682460D02*
X84870074Y-80374115D01*
X85371142Y-81145692D02*
X84870074Y-80374115D01*
X81493680Y-84355316D02*
X85250924Y-81915333D01*
X81820463Y-84858518D02*
X81493680Y-84355316D01*
%TO.C,S3*%
X78176498Y-70984950D02*
G75*
G02*
X78796172Y-68817831I1393395J773723D01*
G01*
X80872130Y-66873507D02*
X80725114Y-67565161D01*
X80725114Y-67565161D02*
X78796172Y-68817831D01*
X78187391Y-71001723D02*
X78568638Y-71588793D01*
X78568638Y-71588793D02*
X74794620Y-74039668D01*
X74794620Y-74039668D02*
X74522301Y-73620333D01*
X76112279Y-66888293D02*
G75*
G02*
X75992060Y-67657933I-444928J-324711D01*
G01*
X78965894Y-63938160D02*
X78274239Y-63791144D01*
X78274239Y-63791144D02*
X75758227Y-65425061D01*
X75758227Y-65425061D02*
X75611211Y-66116716D01*
X76112279Y-66888293D02*
X75611211Y-66116716D01*
X72234817Y-70097917D02*
X75992061Y-67657934D01*
X72561600Y-70601119D02*
X72234817Y-70097917D01*
%TO.C,S4*%
X110735950Y-81353083D02*
G75*
G02*
X111895401Y-79420191I1546170J386721D01*
G01*
X114403851Y-78079415D02*
X114082831Y-78709451D01*
X114082831Y-78709451D02*
X111895401Y-79420190D01*
X110742130Y-81372104D02*
X110958442Y-82037844D01*
X110958442Y-82037844D02*
X106678688Y-83428420D01*
X106678688Y-83428420D02*
X106524179Y-82952892D01*
X109802361Y-76861757D02*
G75*
G02*
X109487041Y-77574058I-513810J-198491D01*
G01*
X113322291Y-74750717D02*
X112692254Y-74429697D01*
X112692254Y-74429697D02*
X109839085Y-75356748D01*
X109839085Y-75356748D02*
X109518065Y-75986785D01*
X109802361Y-76861757D02*
X109518065Y-75986785D01*
X105226308Y-78958455D02*
X109487041Y-77574058D01*
X105411718Y-79529088D02*
X105226308Y-78958455D01*
%TO.C,S5*%
X105482661Y-65185122D02*
G75*
G02*
X106642112Y-63252230I1546170J386721D01*
G01*
X109150562Y-61911454D02*
X108829542Y-62541490D01*
X108829542Y-62541490D02*
X106642112Y-63252229D01*
X105488841Y-65204143D02*
X105705153Y-65869883D01*
X105705153Y-65869883D02*
X101425399Y-67260459D01*
X101425399Y-67260459D02*
X101270890Y-66784931D01*
X104549072Y-60693796D02*
G75*
G02*
X104233752Y-61406097I-513810J-198491D01*
G01*
X108069002Y-58582756D02*
X107438965Y-58261736D01*
X107438965Y-58261736D02*
X104585796Y-59188787D01*
X104585796Y-59188787D02*
X104264776Y-59818824D01*
X104549072Y-60693796D02*
X104264776Y-59818824D01*
X99973019Y-62790494D02*
X104233752Y-61406097D01*
X100158429Y-63361127D02*
X99973019Y-62790494D01*
%TO.C,S6*%
X100229372Y-49017162D02*
G75*
G02*
X101388823Y-47084270I1546170J386721D01*
G01*
X103897273Y-45743494D02*
X103576253Y-46373530D01*
X103576253Y-46373530D02*
X101388823Y-47084269D01*
X100235552Y-49036183D02*
X100451864Y-49701923D01*
X100451864Y-49701923D02*
X96172110Y-51092499D01*
X96172110Y-51092499D02*
X96017601Y-50616971D01*
X99295783Y-44525836D02*
G75*
G02*
X98980463Y-45238137I-513810J-198491D01*
G01*
X102815713Y-42414796D02*
X102185676Y-42093776D01*
X102185676Y-42093776D02*
X99332507Y-43020827D01*
X99332507Y-43020827D02*
X99011487Y-43650864D01*
X99295783Y-44525836D02*
X99011487Y-43650864D01*
X94719730Y-46622534D02*
X98980463Y-45238137D01*
X94905140Y-47193167D02*
X94719730Y-46622534D01*
%TO.C,S7*%
X131271796Y-73982529D02*
G75*
G02*
X132971796Y-72502529I1589999J-109999D01*
G01*
X135771796Y-72002529D02*
X135271796Y-72502529D01*
X135271796Y-72502529D02*
X132971796Y-72502529D01*
X131271796Y-74002529D02*
X131271796Y-74702529D01*
X131271796Y-74702529D02*
X126771796Y-74702529D01*
X126771796Y-74702529D02*
X126771796Y-74202529D01*
X131771796Y-69422529D02*
G75*
G02*
X131251796Y-70002529I-549999J-30001D01*
G01*
X135771796Y-68502529D02*
X135271796Y-68002529D01*
X135271796Y-68002529D02*
X132271796Y-68002529D01*
X132271796Y-68002529D02*
X131771796Y-68502529D01*
X131771796Y-69422529D02*
X131771796Y-68502529D01*
X126771796Y-70002529D02*
X131251796Y-70002529D01*
X126771796Y-70602529D02*
X126771796Y-70002529D01*
%TO.C,S10*%
X149271796Y-78982529D02*
G75*
G02*
X150971796Y-77502529I1589999J-109999D01*
G01*
X153771796Y-77002529D02*
X153271796Y-77502529D01*
X153271796Y-77502529D02*
X150971796Y-77502529D01*
X149271796Y-79002529D02*
X149271796Y-79702529D01*
X149271796Y-79702529D02*
X144771796Y-79702529D01*
X144771796Y-79702529D02*
X144771796Y-79202529D01*
X149771796Y-74422529D02*
G75*
G02*
X149251796Y-75002529I-549999J-30001D01*
G01*
X153771796Y-73502529D02*
X153271796Y-73002529D01*
X153271796Y-73002529D02*
X150271796Y-73002529D01*
X150271796Y-73002529D02*
X149771796Y-73502529D01*
X149771796Y-74422529D02*
X149771796Y-73502529D01*
X144771796Y-75002529D02*
X149251796Y-75002529D01*
X144771796Y-75602529D02*
X144771796Y-75002529D01*
%TO.C,S11*%
X149271796Y-61982529D02*
G75*
G02*
X150971796Y-60502529I1589999J-109999D01*
G01*
X153771796Y-60002529D02*
X153271796Y-60502529D01*
X153271796Y-60502529D02*
X150971796Y-60502529D01*
X149271796Y-62002529D02*
X149271796Y-62702529D01*
X149271796Y-62702529D02*
X144771796Y-62702529D01*
X144771796Y-62702529D02*
X144771796Y-62202529D01*
X149771796Y-57422529D02*
G75*
G02*
X149251796Y-58002529I-549999J-30001D01*
G01*
X153771796Y-56502529D02*
X153271796Y-56002529D01*
X153271796Y-56002529D02*
X150271796Y-56002529D01*
X150271796Y-56002529D02*
X149771796Y-56502529D01*
X149771796Y-57422529D02*
X149771796Y-56502529D01*
X144771796Y-58002529D02*
X149251796Y-58002529D01*
X144771796Y-58602529D02*
X144771796Y-58002529D01*
%TO.C,S12*%
X149271796Y-44982529D02*
G75*
G02*
X150971796Y-43502529I1589999J-109999D01*
G01*
X153771796Y-43002529D02*
X153271796Y-43502529D01*
X153271796Y-43502529D02*
X150971796Y-43502529D01*
X149271796Y-45002529D02*
X149271796Y-45702529D01*
X149271796Y-45702529D02*
X144771796Y-45702529D01*
X144771796Y-45702529D02*
X144771796Y-45202529D01*
X149771796Y-40422529D02*
G75*
G02*
X149251796Y-41002529I-549999J-30001D01*
G01*
X153771796Y-39502529D02*
X153271796Y-39002529D01*
X153271796Y-39002529D02*
X150271796Y-39002529D01*
X150271796Y-39002529D02*
X149771796Y-39502529D01*
X149771796Y-40422529D02*
X149771796Y-39502529D01*
X144771796Y-41002529D02*
X149251796Y-41002529D01*
X144771796Y-41602529D02*
X144771796Y-41002529D01*
%TO.C,S13*%
X167271796Y-83982529D02*
G75*
G02*
X168971796Y-82502529I1589999J-109999D01*
G01*
X171771796Y-82002529D02*
X171271796Y-82502529D01*
X171271796Y-82502529D02*
X168971796Y-82502529D01*
X167271796Y-84002529D02*
X167271796Y-84702529D01*
X167271796Y-84702529D02*
X162771796Y-84702529D01*
X162771796Y-84702529D02*
X162771796Y-84202529D01*
X167771796Y-79422529D02*
G75*
G02*
X167251796Y-80002529I-549999J-30001D01*
G01*
X171771796Y-78502529D02*
X171271796Y-78002529D01*
X171271796Y-78002529D02*
X168271796Y-78002529D01*
X168271796Y-78002529D02*
X167771796Y-78502529D01*
X167771796Y-79422529D02*
X167771796Y-78502529D01*
X162771796Y-80002529D02*
X167251796Y-80002529D01*
X162771796Y-80602529D02*
X162771796Y-80002529D01*
%TO.C,S14*%
X167271796Y-66982529D02*
G75*
G02*
X168971796Y-65502529I1589999J-109999D01*
G01*
X171771796Y-65002529D02*
X171271796Y-65502529D01*
X171271796Y-65502529D02*
X168971796Y-65502529D01*
X167271796Y-67002529D02*
X167271796Y-67702529D01*
X167271796Y-67702529D02*
X162771796Y-67702529D01*
X162771796Y-67702529D02*
X162771796Y-67202529D01*
X167771796Y-62422529D02*
G75*
G02*
X167251796Y-63002529I-549999J-30001D01*
G01*
X171771796Y-61502529D02*
X171271796Y-61002529D01*
X171271796Y-61002529D02*
X168271796Y-61002529D01*
X168271796Y-61002529D02*
X167771796Y-61502529D01*
X167771796Y-62422529D02*
X167771796Y-61502529D01*
X162771796Y-63002529D02*
X167251796Y-63002529D01*
X162771796Y-63602529D02*
X162771796Y-63002529D01*
%TO.C,S15*%
X167271796Y-49982529D02*
G75*
G02*
X168971796Y-48502529I1589999J-109999D01*
G01*
X171771796Y-48002529D02*
X171271796Y-48502529D01*
X171271796Y-48502529D02*
X168971796Y-48502529D01*
X167271796Y-50002529D02*
X167271796Y-50702529D01*
X167271796Y-50702529D02*
X162771796Y-50702529D01*
X162771796Y-50702529D02*
X162771796Y-50202529D01*
X167771796Y-45422529D02*
G75*
G02*
X167251796Y-46002529I-549999J-30001D01*
G01*
X171771796Y-44502529D02*
X171271796Y-44002529D01*
X171271796Y-44002529D02*
X168271796Y-44002529D01*
X168271796Y-44002529D02*
X167771796Y-44502529D01*
X167771796Y-45422529D02*
X167771796Y-44502529D01*
X162771796Y-46002529D02*
X167251796Y-46002529D01*
X162771796Y-46602529D02*
X162771796Y-46002529D01*
D11*
%TO.C,MCU1*%
X177201796Y-111492529D02*
X177201796Y-114152529D01*
X149201796Y-96252529D02*
X149201796Y-98912529D01*
X179801796Y-96252529D02*
X149201796Y-96252529D01*
X179801796Y-96252529D02*
X179801796Y-98912529D01*
X179801796Y-114152529D02*
X149201796Y-114152529D01*
X179801796Y-98912529D02*
X149201796Y-98912529D01*
X149201796Y-111492529D02*
X149201796Y-114152529D01*
X179801796Y-111492529D02*
X149201796Y-111492529D01*
X179801796Y-111492529D02*
X179801796Y-114152529D01*
%TO.C,PWR1*%
X71450000Y-89602529D02*
X71450000Y-89802529D01*
X68600000Y-85352529D02*
X68600000Y-91052529D01*
X71450000Y-86602529D02*
X71450000Y-88302529D01*
X70400000Y-84752529D02*
X69610000Y-84752529D01*
X69610000Y-91652529D02*
X70400000Y-91652529D01*
%TD*%
M02*
