M48
; DRILL file {KiCad 9.0.6} date 2025-12-19T17:46:58-0800
; FORMAT={-:-/ absolute / metric / decimal}
; #@! TF.CreationDate,2025-12-19T17:46:58-08:00
; #@! TF.GenerationSoftware,Kicad,Pcbnew,9.0.6
; #@! TF.FileFunction,Plated,1,2,PTH
FMAT,2
METRIC
; #@! TA.AperFunction,Plated,PTH,ViaDrill
T1C0.300
; #@! TA.AperFunction,Plated,PTH,ComponentDrill
T2C0.400
; #@! TA.AperFunction,Plated,PTH,ComponentDrill
T3C0.750
; #@! TA.AperFunction,Plated,PTH,ComponentDrill
T4C1.000
; #@! TA.AperFunction,Plated,PTH,ComponentDrill
T5C1.270
%
G90
G05
T1
X72.01Y-84.75
X72.978Y-88.272
X79.372Y-68.235
X79.808Y-68.906
X88.631Y-82.493
X89.066Y-83.164
X97.89Y-96.75
X98.325Y-97.421
X102.096Y-46.671
X102.343Y-47.431
X107.349Y-62.839
X107.596Y-63.599
X111.0Y-108.0
X111.75Y-107.25
X112.602Y-79.007
X112.849Y-79.767
X133.772Y-38.328
X133.772Y-39.128
X133.772Y-55.328
X133.772Y-56.128
X133.772Y-72.328
X133.772Y-73.128
X151.772Y-43.328
X151.772Y-44.128
X151.772Y-60.328
X151.772Y-61.128
X151.772Y-77.328
X151.772Y-78.128
X169.772Y-48.328
X169.772Y-49.128
X169.772Y-65.328
X169.772Y-66.128
X169.772Y-82.328
X169.772Y-83.128
T2
X170.852Y-101.803
X170.852Y-108.603
X173.392Y-101.803
X173.392Y-108.603
X175.932Y-101.803
X175.932Y-108.603
X178.472Y-101.803
X178.472Y-108.603
T3
X107.198Y-109.383
X108.345Y-111.022
T4
X69.772Y-95.953
X69.772Y-102.453
X150.532Y-97.583
X150.532Y-112.823
X153.072Y-97.583
X153.072Y-112.823
X155.612Y-97.583
X155.612Y-112.823
X158.152Y-97.583
X158.152Y-112.823
X160.692Y-97.583
X160.692Y-112.823
X163.232Y-97.583
X163.232Y-112.823
X165.772Y-97.583
X165.772Y-112.823
X168.312Y-97.583
X168.312Y-112.823
X170.852Y-97.583
X170.852Y-112.823
X173.392Y-97.583
X173.392Y-112.823
X175.932Y-97.583
X175.932Y-112.823
X178.472Y-97.583
X178.472Y-112.823
T5
X79.359Y-77.395
X84.696Y-76.433
X87.745Y-71.949
X88.617Y-91.653
X93.955Y-90.691
X97.004Y-86.206
X97.876Y-105.91
X99.712Y-55.515
X103.213Y-104.948
X104.965Y-71.683
X105.116Y-55.967
X106.263Y-100.464
X109.223Y-52.425
X110.219Y-87.851
X110.37Y-72.135
X114.476Y-68.593
X115.623Y-88.303
X119.729Y-84.761
X128.772Y-46.003
X128.772Y-63.003
X128.772Y-80.003
X133.772Y-48.103
X133.772Y-65.103
X133.772Y-82.103
X138.772Y-46.003
X138.772Y-63.003
X138.772Y-80.003
X146.772Y-51.003
X146.772Y-68.003
X146.772Y-85.003
X151.772Y-53.103
X151.772Y-70.103
X151.772Y-87.103
X156.772Y-51.003
X156.772Y-68.003
X156.772Y-85.003
X164.772Y-56.003
X164.772Y-73.003
X164.772Y-90.003
X169.772Y-58.103
X169.772Y-75.103
X169.772Y-92.103
X174.772Y-56.003
X174.772Y-73.003
X174.772Y-90.003
M30
