M48
; DRILL file {KiCad 9.0.6} date 2025-12-19T17:46:58-0800
; FORMAT={-:-/ absolute / metric / decimal}
; #@! TF.CreationDate,2025-12-19T17:46:58-08:00
; #@! TF.GenerationSoftware,Kicad,Pcbnew,9.0.6
; #@! TF.FileFunction,NonPlated,1,2,NPTH
FMAT,2
METRIC
; #@! TA.AperFunction,NonPlated,NPTH,ComponentDrill
T1C0.900
; #@! TA.AperFunction,NonPlated,NPTH,ComponentDrill
T2C1.900
; #@! TA.AperFunction,NonPlated,NPTH,ComponentDrill
T3C2.200
; #@! TA.AperFunction,NonPlated,NPTH,ComponentDrill
T4C3.000
; #@! TA.AperFunction,NonPlated,NPTH,ComponentDrill
T5C3.400
%
G90
G05
T1
X70.0Y-86.703
X70.0Y-89.703
T2
X76.87Y-74.481
X86.095Y-68.49
X86.128Y-88.738
X95.354Y-82.747
X95.387Y-102.996
X98.062Y-52.056
X103.316Y-68.224
X104.613Y-97.004
X108.524Y-48.656
X108.569Y-84.391
X113.777Y-64.824
X119.03Y-80.992
X128.272Y-42.203
X128.272Y-59.203
X128.272Y-76.203
X139.272Y-42.203
X139.272Y-59.203
X139.272Y-76.203
X146.272Y-47.203
X146.272Y-64.203
X146.272Y-81.203
X157.272Y-47.203
X157.272Y-64.203
X157.272Y-81.203
X164.272Y-52.203
X164.272Y-69.203
X164.272Y-86.203
X175.272Y-52.203
X175.272Y-69.203
X175.272Y-86.203
T3
X70.772Y-35.203
X70.772Y-114.203
X141.772Y-111.203
X179.772Y-35.203
T4
X75.247Y-71.063
X78.242Y-66.495
X83.633Y-65.617
X84.505Y-85.321
X87.501Y-80.753
X92.892Y-79.874
X93.764Y-99.578
X96.759Y-95.01
X97.379Y-48.335
X101.454Y-44.697
X102.151Y-94.132
X102.632Y-64.503
X106.708Y-60.865
X106.889Y-45.244
X107.886Y-80.671
X111.961Y-77.033
X112.143Y-61.412
X117.396Y-77.58
X128.772Y-38.453
X128.772Y-55.453
X128.772Y-72.453
X133.772Y-36.253
X133.772Y-53.253
X133.772Y-70.253
X138.772Y-38.453
X138.772Y-55.453
X138.772Y-72.453
X146.772Y-43.453
X146.772Y-60.453
X146.772Y-77.453
X151.772Y-41.253
X151.772Y-58.253
X151.772Y-75.253
X156.772Y-43.453
X156.772Y-60.453
X156.772Y-77.453
X164.772Y-48.453
X164.772Y-65.453
X164.772Y-82.453
X169.772Y-46.253
X169.772Y-63.253
X169.772Y-80.253
X174.772Y-48.453
X174.772Y-65.453
X174.772Y-82.453
T5
X81.482Y-71.485
X90.741Y-85.743
X100.0Y-100.0
X103.293Y-50.356
X108.546Y-66.524
X113.8Y-82.692
X133.772Y-42.203
X133.772Y-59.203
X133.772Y-76.203
X151.772Y-47.203
X151.772Y-64.203
X151.772Y-81.203
X169.772Y-52.203
X169.772Y-69.203
X169.772Y-86.203
M30
